<svg width="25" height="26" viewBox="0 0 25 26" fill="none" xmlns="http://www.w3.org/2000/svg">
<mask id="path-1-inside-1_893_793" fill="white">
<path d="M25 10.1111V23.8333C25 25.03 24.0673 26 22.9167 26H2.08333C0.932743 26 0 25.03 0 23.8333V2.16667C0 0.970053 0.932743 0 2.08333 0H16.6667"/>
</mask>
<path d="M27.5 10.1111C27.5 8.7304 26.3807 7.61111 25 7.61111C23.6193 7.61111 22.5 8.7304 22.5 10.1111H27.5ZM16.6667 2.5C18.0474 2.5 19.1667 1.38071 19.1667 0C19.1667 -1.38071 18.0474 -2.5 16.6667 -2.5V2.5ZM22.5 10.1111V23.8333H27.5V10.1111H22.5ZM22.5 23.8333C22.5 23.7736 22.5253 23.6975 22.5877 23.6326C22.6518 23.566 22.7694 23.5 22.9167 23.5V28.5C25.5395 28.5 27.5 26.3174 27.5 23.8333H22.5ZM22.9167 23.5H2.08333V28.5H22.9167V23.5ZM2.08333 23.5C2.23059 23.5 2.34824 23.566 2.41227 23.6326C2.47465 23.6975 2.5 23.7735 2.5 23.8333H-2.5C-2.5 26.3174 -0.539453 28.5 2.08333 28.5V23.5ZM2.5 23.8333V2.16667H-2.5V23.8333H2.5ZM2.5 2.16667C2.5 2.22649 2.47464 2.30252 2.41228 2.36737C2.34826 2.43395 2.23062 2.5 2.08333 2.5V-2.5C-0.539477 -2.5 -2.5 -0.317339 -2.5 2.16667H2.5ZM2.08333 2.5H16.6667V-2.5H2.08333V2.5Z" fill="black" mask="url(#path-1-inside-1_893_793)"/>
<mask id="path-3-inside-2_893_793" fill="white">
<path d="M4.77777 10.8889L12.5555 17.1111L24.2222 0.777771"/>
</mask>
<path d="M6.33951 8.93671C5.26135 8.07419 3.68812 8.24899 2.8256 9.32714C1.96308 10.4053 2.13788 11.9785 3.21603 12.8411L6.33951 8.93671ZM12.5555 17.1111L10.9938 19.0633C11.53 19.4922 12.2191 19.6818 12.8992 19.5874C13.5794 19.493 14.1908 19.123 14.5899 18.5642L12.5555 17.1111ZM26.2565 2.23087C27.0591 1.10734 26.7988 -0.45404 25.6753 -1.25656C24.5518 -2.05909 22.9904 -1.79886 22.1879 -0.675324L26.2565 2.23087ZM3.21603 12.8411L10.9938 19.0633L14.1173 15.1589L6.33951 8.93671L3.21603 12.8411ZM14.5899 18.5642L26.2565 2.23087L22.1879 -0.675324L10.5212 15.658L14.5899 18.5642Z" fill="black" mask="url(#path-3-inside-2_893_793)"/>
</svg>
