<svg width="63" height="36" viewBox="0 0 63 36" fill="none" xmlns="http://www.w3.org/2000/svg">
<g clip-path="url(#clip0_745_20519)">
<path fill-rule="evenodd" clip-rule="evenodd" d="M47.5369 21.9304L35.9521 21.9305C35.1232 21.9314 34.8556 21.7425 34.4675 21.1401C34.0894 20.5532 33.8206 19.1881 33.7824 18.5239C33.752 17.9946 33.8049 17.4838 33.7247 16.9902C33.5444 15.8805 33.1097 14.8039 32.3645 13.9165C31.0913 12.4006 28.4678 11.2802 26.4815 11.2844C21.1735 11.2251 15.752 11.0337 10.4606 11.0523C9.95385 11.054 9.5253 10.9599 9.17627 10.6181C8.61526 10.0687 8.62587 9.20056 8.80168 8.42875C8.95659 7.74858 9.2734 7.10576 9.8585 6.73817C10.6287 6.25438 19.1812 6.52277 20.6823 6.52277C22.0817 6.52277 23.5013 6.30286 24.3779 7.42938C24.7177 7.86615 24.9655 8.45881 24.9795 9.03908C26.9171 9.03908 30.1693 9.10361 32.0243 8.91733C32.6203 8.85744 32.4776 8.98624 32.5838 8.46877C32.8238 7.29993 32.8546 6.18778 32.5627 5.02214C32.4389 4.52767 32.1971 4.06534 31.9392 3.66511C31.6464 3.21088 31.384 2.96527 30.9979 2.60289C30.1701 1.82578 28.7963 1.26487 27.6152 0.941345C27.2908 0.852492 16.6615 0.909375 16.2182 0.909375C14.4375 0.909375 8.34138 0.789486 7.00969 0.9977C5.90187 1.17087 4.92179 1.55254 3.99121 2.06811C3.46466 2.35991 2.99919 2.7466 2.5649 3.14484L1.86609 3.92876C0.209538 6.25349 0.810147 9.92089 1.27902 12.5649C1.97796 15.4604 4.14897 17.1083 7.33228 17.0908C9.30548 17.15 22.8057 17.3284 24.0899 17.8394C25.7907 18.5159 25.1992 19.5462 25.3505 21.3899C25.4438 22.5259 25.72 23.6937 26.1611 24.5117C26.7702 25.6412 27.6379 26.6723 28.8877 27.2465L29.9797 27.7045C31.6585 28.2878 32.8008 28.2018 34.617 28.2018C41.5387 28.2018 48.4602 28.2018 55.3817 28.2018C58.5512 28.2018 62.4971 25.3903 62.654 22.2407C62.6728 21.8717 62.6535 21.4533 62.6535 21.0787C62.6535 19.5301 62.6535 17.9816 62.6535 16.4331H54.8101C54.9749 16.7523 54.8443 18.0363 54.7307 18.5664C54.6203 19.0805 54.3131 19.8398 54.0172 20.2273C53.2558 21.2252 52.2333 21.7559 50.8777 21.9207C50.5715 21.9579 48.0694 21.9304 47.5369 21.9304Z" fill="white"/>
<path fill-rule="evenodd" clip-rule="evenodd" d="M30.9038 0.831983C30.9887 0.949643 31.1194 1.00073 31.2497 1.09169C31.715 1.41623 31.7217 1.44783 32.1106 1.76391L32.573 2.22531C32.6703 2.34228 32.7676 2.45415 32.8647 2.57404C33.4442 3.28907 33.8244 4.14438 34.0226 5.06118C34.0939 5.39087 34.3303 6.92502 34.158 7.25827C34.5135 7.25827 34.7046 7.21694 35.0337 7.2191L37.4904 7.12601C37.5438 7.1215 37.6015 7.10341 37.7043 7.10341H50.1788C51.0346 7.10341 52.5991 7.63365 53.2947 8.16065C53.7475 8.50386 53.9861 8.74435 54.3097 9.19342C54.5582 9.53865 54.8175 10.1193 54.9349 10.5876H62.5698C62.5698 10.3172 62.6116 10.2098 62.6116 9.92944C62.6116 8.61593 62.7277 6.82239 62.3256 5.70433C62.2735 5.56013 62.2302 5.45079 62.165 5.31138C62.1279 5.23241 62.1016 5.19429 62.0701 5.12844L61.8676 4.73527C61.5309 4.14932 61.1964 3.73491 60.7239 3.24147C59.7794 2.25521 58.7479 1.68785 57.3712 1.24242C56.8766 1.08237 55.9391 0.862004 55.3511 0.833035C52.593 0.697386 48.5207 0.831939 45.6313 0.831939L30.9038 0.831983Z" fill="white"/>
<path fill-rule="evenodd" clip-rule="evenodd" d="M0.906663 19.8399C0.906663 21.3568 0.801476 23.5161 1.37929 24.6663C2.35096 26.6007 4.03751 27.622 6.21532 28.0377C7.16979 28.2198 9.21358 28.1245 10.3773 28.1245C16.0235 28.1245 21.6697 28.1245 27.3159 28.1245C27.2593 27.9793 27.2215 28.0246 27.0367 27.8804C26.9776 27.8343 26.9624 27.814 26.9046 27.7707C25.5653 26.7676 24.6692 25.3334 24.1504 23.8225C24.0801 23.6181 23.9366 23.2097 23.9366 22.9757H12.0045C11.5551 22.9757 10.8111 22.9492 10.4894 22.8331C9.85824 22.6053 9.26182 21.5853 9.03697 21.0063C8.87775 20.5964 8.8234 20.1813 8.70851 19.7238C6.32959 19.7238 3.6503 19.7587 1.28078 19.7224C1.09503 19.7196 0.906663 19.6767 0.906663 19.8399Z" fill="white"/>
<path fill-rule="evenodd" clip-rule="evenodd" d="M43.712 31.7635V35.4412C43.712 35.6643 44.0722 35.596 44.463 35.596C44.6907 35.596 44.6313 35.3097 44.6301 35.0929L44.6299 33.0023L45.3512 34.3074C45.4389 34.4979 45.949 35.596 46.1318 35.596C46.7082 35.596 47.0914 35.6765 47.0914 35.4799V31.7247C47.0914 31.5462 46.8569 31.6086 46.3822 31.6086C46.146 31.6086 46.2145 31.9376 46.2152 32.1506L46.2152 34.2411C46.1867 34.2106 46.1942 34.2243 46.1642 34.1724L44.9916 31.8924C44.7991 31.5291 44.972 31.6087 43.8789 31.6087C43.7812 31.6087 43.712 31.6728 43.712 31.7635Z" fill="white"/>
<path fill-rule="evenodd" clip-rule="evenodd" d="M39.2063 31.7635V35.4412C39.2063 35.6643 39.5666 35.596 39.9573 35.596C40.185 35.596 40.1256 35.3097 40.1244 35.0929L40.1242 33.0023L40.8455 34.3074C40.9331 34.4979 41.4432 35.596 41.6261 35.596C42.2025 35.596 42.5857 35.6765 42.5857 35.4799V31.7247C42.5857 31.5462 42.3512 31.6086 41.8764 31.6086C41.6403 31.6086 41.7088 31.9376 41.7095 32.1506L41.7095 34.2411C41.6809 34.2106 41.6885 34.2243 41.6584 34.1724L40.4859 31.8924C40.2933 31.5291 40.4663 31.6087 39.3732 31.6087C39.2755 31.6087 39.2063 31.6728 39.2063 31.7635Z" fill="white"/>
<path fill-rule="evenodd" clip-rule="evenodd" d="M17.595 34.7444H16.6771V32.4603C17.6386 32.4603 18.3042 32.2761 18.3042 33.6216C18.3042 34.0671 18.1753 34.7444 17.595 34.7444ZM15.7175 31.7635V35.4412C15.7175 35.5318 15.7868 35.596 15.8844 35.596C18.0087 35.596 19.3055 35.8976 19.3055 33.5442C19.3055 31.3035 17.6307 31.6086 15.8844 31.6086C15.7868 31.6086 15.7175 31.6728 15.7175 31.7635Z" fill="white"/>
<path fill-rule="evenodd" clip-rule="evenodd" d="M13.1308 34.7444H12.213V32.4603C13.1744 32.4603 13.84 32.2761 13.84 33.6216C13.84 34.0671 13.7112 34.7444 13.1308 34.7444ZM11.2534 31.7635V35.4412C11.2534 35.5318 11.3227 35.596 11.4203 35.596C13.5445 35.596 14.8414 35.8976 14.8414 33.5442C14.8414 31.3035 13.1666 31.6086 11.4203 31.6086C11.3227 31.6086 11.2534 31.6728 11.2534 31.7635Z" fill="white"/>
<path fill-rule="evenodd" clip-rule="evenodd" d="M4.70325 32.7313C4.70325 34.782 7.28992 33.4229 7.28992 34.3185C7.28992 34.8586 6.898 34.7444 6.16345 34.7444C5.92709 34.7444 5.69055 34.7449 5.45416 34.7443C4.7846 34.7424 4.87009 34.6502 4.87009 35.4412C4.87009 35.5318 4.9393 35.596 5.03698 35.596C5.74048 35.596 7.38757 35.684 7.85755 35.3872C8.34843 35.0772 8.47581 34.1142 8.13406 33.6125C7.47484 32.6447 5.7045 33.5368 5.7045 32.8087L5.74626 32.5377C6.02803 32.4123 7.17517 32.4571 7.62397 32.4606C8.20588 32.4651 8.12434 32.5278 8.12434 31.7635C8.12434 31.6728 8.0551 31.6086 7.95745 31.6086C7.33806 31.6086 5.5558 31.5246 5.17247 31.8117C4.93292 31.9911 4.70325 32.3414 4.70325 32.7313Z" fill="white"/>
<path fill-rule="evenodd" clip-rule="evenodd" d="M36.5361 34.8218C36.2412 34.8218 35.9207 34.8455 35.7084 34.5059C35.4702 34.1248 35.2921 32.4216 36.2858 32.4216C36.6573 32.4216 36.9664 32.4113 37.1635 32.8073C37.3756 33.2335 37.3756 34.0098 37.1635 34.4361C37.0615 34.641 36.8576 34.8218 36.5361 34.8218ZM34.5335 33.3894C34.5335 33.8953 34.5032 34.0809 34.6839 34.5662C34.8095 34.9036 35.0041 35.1082 35.3084 35.3028C36.0567 35.7812 38.3301 35.9318 38.3301 33.6604C38.3301 33.458 38.2762 33.0546 38.2286 32.8642C38.1049 32.3686 37.8457 32.0172 37.3717 31.8012C36.3978 31.3572 34.5335 31.5928 34.5335 33.3894Z" fill="white"/>
<path fill-rule="evenodd" clip-rule="evenodd" d="M20.2233 31.7635V35.4412C20.2233 35.6674 20.6024 35.596 21.016 35.596C21.1137 35.596 21.1829 35.5318 21.1829 35.4412V34.0475H22.4762V35.4799C22.4762 35.6616 22.7325 35.5961 23.2271 35.5961C23.3248 35.5961 23.394 35.5319 23.394 35.4413V31.7635C23.394 31.5373 23.015 31.6087 22.6013 31.6087C22.5052 31.6087 22.4762 31.6356 22.4762 31.7248V33.1959H21.1829V31.7635C21.1829 31.5373 20.8038 31.6087 20.3902 31.6087C20.2925 31.6087 20.2233 31.6728 20.2233 31.7635Z" fill="white"/>
<path fill-rule="evenodd" clip-rule="evenodd" d="M26.1894 32.8087L26.4043 33.3061C26.4533 33.4284 26.594 33.7133 26.6066 33.8539H25.7722C25.8416 33.7197 25.9204 33.4884 25.976 33.3462C26.0395 33.1837 26.1495 32.9677 26.1894 32.8087ZM25.1881 35.596C25.2644 35.2923 25.4428 35.0207 25.5219 34.7056H26.857C26.9308 34.8352 27.0042 35.0385 27.0593 35.176C27.0936 35.2617 27.1159 35.3306 27.1463 35.4049C27.2518 35.6631 27.154 35.596 28.1086 35.596C28.1769 35.596 28.2337 35.5728 28.2337 35.5186C28.2337 35.4046 27.9346 34.6916 27.8704 34.5394L26.6901 31.6085H25.6888L24.3071 35.0882C24.1863 35.3971 24.04 35.5507 24.3117 35.5943C24.4745 35.6203 24.989 35.596 25.1881 35.596Z" fill="white"/>
<path fill-rule="evenodd" clip-rule="evenodd" d="M48.0093 33.3119C48.0093 34.0685 47.9628 35.0074 48.9397 35.4295C49.059 35.4812 49.2328 35.5327 49.354 35.5484C49.8195 35.6087 50.477 35.596 50.9716 35.596C51.1708 35.596 51.0966 35.3368 51.0966 34.8605C51.0966 34.4392 49.0525 35.2809 49.0525 34.0475H50.9712C51.1708 34.0475 51.0966 33.7883 51.0966 33.312C51.0966 33.1434 50.873 33.1927 50.68 33.1952L49.0107 33.1959C49.0501 32.7535 49.2136 32.4804 49.719 32.4596C51.2727 32.3956 51.0966 32.7715 51.0966 31.7247C51.0966 31.6356 51.0675 31.6086 50.9716 31.6086C50.5076 31.6086 49.5001 31.5773 49.1008 31.6926C48.8885 31.7538 48.7086 31.9203 48.5269 32.0503C48.1995 32.2845 48.0093 32.7863 48.0093 33.3119Z" fill="white"/>
<path fill-rule="evenodd" clip-rule="evenodd" d="M30.6952 33.3894C30.6952 34.9148 30.9916 35.596 32.7395 35.596C34.0566 35.596 33.8243 35.7874 33.8243 34.8605C33.8243 34.5967 32.8546 34.8387 32.2959 34.7302C31.6719 34.609 31.6965 33.87 31.6965 33.3894C31.6965 32.8858 31.8744 32.5377 32.3312 32.4686L33.5359 32.4636C33.8913 32.4662 33.8243 32.5257 33.8243 31.7247C33.8243 31.6356 33.7952 31.6086 33.6991 31.6086C32.808 31.6086 31.7855 31.4951 31.2051 32.043C30.9 32.3309 30.6952 32.8319 30.6952 33.3894Z" fill="white"/>
<path fill-rule="evenodd" clip-rule="evenodd" d="M51.8894 33.3894C51.8894 34.9148 52.1858 35.596 53.9335 35.596C55.2506 35.596 55.0185 35.7874 55.0185 34.8605C55.0185 34.7111 54.8856 34.7399 54.7301 34.741C53.3389 34.7509 52.8908 34.9592 52.8908 33.3894C52.8908 32.255 53.6996 32.4562 54.7301 32.4636C55.0852 32.4662 55.0185 32.5257 55.0185 31.7247C55.0185 31.6356 54.9894 31.6086 54.8931 31.6086C54.0021 31.6086 52.9796 31.4951 52.399 32.043C52.0942 32.3309 51.8894 32.8319 51.8894 33.3894Z" fill="white"/>
<path fill-rule="evenodd" clip-rule="evenodd" d="M55.6024 31.6473V32.4215C55.9725 32.5015 56.4258 32.4603 56.8124 32.4603V35.4799C56.8124 35.6616 57.0688 35.596 57.5634 35.596C57.6611 35.596 57.7301 35.5318 57.7301 35.4412V32.4603C58.1167 32.4603 58.5704 32.5016 58.9401 32.4216V31.6473C58.6188 31.5779 55.834 31.564 55.6024 31.6473Z" fill="white"/>
<path fill-rule="evenodd" clip-rule="evenodd" d="M9.20911 31.7634V35.4412C9.20911 35.6674 9.5882 35.596 10.0018 35.596C10.0995 35.596 10.1687 35.5318 10.1687 35.4412V31.7634C10.1687 31.5372 9.7896 31.6086 9.37599 31.6086C9.27834 31.6086 9.20911 31.6728 9.20911 31.7634Z" fill="white"/>
</g>
<defs>
<clipPath id="clip0_745_20519">
<rect width="62" height="35.2273" fill="white" transform="translate(0.71875 0.772461)"/>
</clipPath>
</defs>
</svg>
