<svg width="30" height="28" viewBox="0 0 30 28" fill="none" xmlns="http://www.w3.org/2000/svg">
<path fill-rule="evenodd" clip-rule="evenodd" d="M20.6856 10.1818C20.6856 11.532 20.131 12.8268 19.1437 13.7816C18.1564 14.7363 16.8173 15.2727 15.4211 15.2727C14.0248 15.2727 12.6857 14.7363 11.6984 13.7816C10.7112 12.8268 10.1565 11.532 10.1565 10.1818C10.1565 8.83157 10.7112 7.53667 11.6984 6.58194C12.6857 5.62721 14.0248 5.09085 15.4211 5.09085C16.8173 5.09085 18.1564 5.62721 19.1437 6.58194C20.131 7.53667 20.6856 8.83157 20.6856 10.1818ZM18.0533 10.1818C18.0533 10.8569 17.776 11.5043 17.2824 11.9817C16.7887 12.459 16.1192 12.7272 15.4211 12.7272C14.7229 12.7272 14.0534 12.459 13.5598 11.9817C13.0661 11.5043 12.7888 10.8569 12.7888 10.1818C12.7888 9.50666 13.0661 8.85922 13.5598 8.38185C14.0534 7.90449 14.7229 7.63631 15.4211 7.63631C16.1192 7.63631 16.7887 7.90449 17.2824 8.38185C17.776 8.85922 18.0533 9.50666 18.0533 10.1818Z" fill="white"/>
<path fill-rule="evenodd" clip-rule="evenodd" d="M15.4209 0C7.42535 0 0.943359 6.26818 0.943359 14C0.943359 21.7318 7.42535 28 15.4209 28C23.4165 28 29.8984 21.7318 29.8984 14C29.8984 6.26818 23.4165 0 15.4209 0ZM3.57564 14C3.57564 16.66 4.51405 19.1087 6.08684 21.0535C7.19138 19.6508 8.61633 18.514 10.2504 17.732C11.8844 16.95 13.6833 16.5439 15.5065 16.5455C17.306 16.5438 19.0823 16.9394 20.6999 17.7021C22.3174 18.4648 23.7336 19.5744 24.8405 20.9465C25.9809 19.5002 26.7487 17.8121 27.0805 16.0218C27.4122 14.2316 27.2983 12.3907 26.7483 10.6514C26.1982 8.91219 25.2278 7.32461 23.9172 6.02005C22.6067 4.71549 20.9938 3.73146 19.2119 3.14937C17.43 2.56729 15.5304 2.40389 13.6703 2.67269C11.8101 2.94149 10.0429 3.63477 8.51481 4.69516C6.98674 5.75555 5.74176 7.15256 4.88287 8.77061C4.02398 10.3887 3.57588 12.1812 3.57564 14ZM15.4209 25.4545C12.7017 25.4585 10.0646 24.5539 7.95575 22.8938C8.80457 21.7188 9.93436 20.7594 11.249 20.0972C12.5636 19.4351 14.0242 19.0899 15.5065 19.0909C16.9702 19.0898 18.4131 19.4264 19.7154 20.0727C21.0176 20.7191 22.1416 21.6565 22.994 22.8073C20.8688 24.5213 18.1882 25.4583 15.4209 25.4545Z" fill="white"/>
</svg>
