<svg width="303" height="27" viewBox="0 0 303 27" fill="none" xmlns="http://www.w3.org/2000/svg">
<path d="M16.082 6.263C15.912 6.535 15.7307 6.739 15.538 6.875C15.3567 7.011 15.1187 7.079 14.824 7.079C14.5633 7.079 14.28 6.99967 13.974 6.841C13.6793 6.671 13.3393 6.484 12.954 6.28C12.58 6.076 12.1493 5.89467 11.662 5.736C11.1747 5.566 10.6193 5.481 9.996 5.481C8.91933 5.481 8.11467 5.71333 7.582 6.178C7.06067 6.63133 6.8 7.249 6.8 8.031C6.8 8.52967 6.95867 8.94333 7.276 9.272C7.59333 9.60067 8.007 9.884 8.517 10.122C9.03833 10.36 9.62767 10.581 10.285 10.785C10.9537 10.9777 11.6337 11.1987 12.325 11.448C13.0163 11.686 13.6907 11.9693 14.348 12.298C15.0167 12.6267 15.606 13.046 16.116 13.556C16.6373 14.066 17.0567 14.6893 17.374 15.426C17.6913 16.1513 17.85 17.0297 17.85 18.061C17.85 19.2057 17.6517 20.2767 17.255 21.274C16.8583 22.2713 16.2803 23.144 15.521 23.892C14.773 24.6287 13.8437 25.2123 12.733 25.643C11.6337 26.0623 10.3813 26.272 8.976 26.272C8.20533 26.272 7.41767 26.1927 6.613 26.034C5.81967 25.8753 5.049 25.6543 4.301 25.371C3.553 25.0763 2.85033 24.7307 2.193 24.334C1.53567 23.9373 0.963333 23.4953 0.476 23.008L2.176 20.322C2.312 20.1293 2.48767 19.9707 2.703 19.846C2.92967 19.71 3.17333 19.642 3.434 19.642C3.774 19.642 4.114 19.7497 4.454 19.965C4.80533 20.1803 5.19633 20.4183 5.627 20.679C6.069 20.9397 6.57333 21.1777 7.14 21.393C7.70667 21.6083 8.37533 21.716 9.146 21.716C10.1887 21.716 10.999 21.4893 11.577 21.036C12.155 20.5713 12.444 19.8403 12.444 18.843C12.444 18.265 12.2853 17.7947 11.968 17.432C11.6507 17.0693 11.2313 16.769 10.71 16.531C10.2 16.293 9.61633 16.0833 8.959 15.902C8.30167 15.7207 7.62733 15.5223 6.936 15.307C6.24467 15.0803 5.57033 14.8083 4.913 14.491C4.25567 14.1623 3.66633 13.7373 3.145 13.216C2.635 12.6833 2.22133 12.026 1.904 11.244C1.58667 10.4507 1.428 9.476 1.428 8.32C1.428 7.39067 1.615 6.484 1.989 5.6C2.363 4.716 2.91267 3.92833 3.638 3.237C4.36333 2.54566 5.253 1.996 6.307 1.588C7.361 1.16867 8.568 0.958999 9.928 0.958999C10.6873 0.958999 11.424 1.02133 12.138 1.146C12.8633 1.25933 13.549 1.435 14.195 1.673C14.841 1.89967 15.4417 2.17733 15.997 2.506C16.5637 2.82333 17.068 3.186 17.51 3.594L16.082 6.263ZM27.0032 26H21.2232V1.231H27.0032V26ZM54.2558 13.607C54.2558 15.3977 53.9441 17.0523 53.3208 18.571C52.7088 20.0783 51.8418 21.3873 50.7198 22.498C49.5978 23.5973 48.2434 24.4587 46.6568 25.082C45.0814 25.694 43.3304 26 41.4038 26H31.7818V1.231H41.4038C43.3304 1.231 45.0814 1.54267 46.6568 2.166C48.2434 2.78933 49.5978 3.65067 50.7198 4.75C51.8418 5.84933 52.7088 7.15833 53.3208 8.677C53.9441 10.1843 54.2558 11.8277 54.2558 13.607ZM48.3738 13.607C48.3738 12.383 48.2151 11.278 47.8978 10.292C47.5804 9.306 47.1214 8.473 46.5208 7.793C45.9314 7.10167 45.2061 6.57467 44.3448 6.212C43.4834 5.838 42.5031 5.651 41.4038 5.651H37.5618V21.58H41.4038C42.5031 21.58 43.4834 21.3987 44.3448 21.036C45.2061 20.662 45.9314 20.135 46.5208 19.455C47.1214 18.7637 47.5804 17.925 47.8978 16.939C48.2151 15.953 48.3738 14.8423 48.3738 13.607ZM80.121 13.607C80.121 15.3977 79.8093 17.0523 79.186 18.571C78.574 20.0783 77.707 21.3873 76.585 22.498C75.463 23.5973 74.1087 24.4587 72.522 25.082C70.9467 25.694 69.1957 26 67.269 26H57.647V1.231H67.269C69.1957 1.231 70.9467 1.54267 72.522 2.166C74.1087 2.78933 75.463 3.65067 76.585 4.75C77.707 5.84933 78.574 7.15833 79.186 8.677C79.8093 10.1843 80.121 11.8277 80.121 13.607ZM74.239 13.607C74.239 12.383 74.0803 11.278 73.763 10.292C73.4457 9.306 72.9867 8.473 72.386 7.793C71.7967 7.10167 71.0713 6.57467 70.21 6.212C69.3487 5.838 68.3683 5.651 67.269 5.651H63.427V21.58H67.269C68.3683 21.58 69.3487 21.3987 70.21 21.036C71.0713 20.662 71.7967 20.135 72.386 19.455C72.9867 18.7637 73.4457 17.925 73.763 16.939C74.0803 15.953 74.239 14.8423 74.239 13.607ZM105.136 1.231V26H99.3562V15.528H89.2922V26H83.5122V1.231H89.2922V11.584H99.3562V1.231H105.136ZM123.032 16.531L120.737 9.748C120.567 9.31733 120.386 8.813 120.193 8.235C120 7.64567 119.808 7.011 119.615 6.331C119.445 7.02233 119.264 7.66267 119.071 8.252C118.878 8.84133 118.697 9.35133 118.527 9.782L116.249 16.531H123.032ZM132.161 26H127.707C127.208 26 126.806 25.8867 126.5 25.66C126.194 25.422 125.962 25.1217 125.803 24.759L124.341 20.441H114.923L113.461 24.759C113.336 25.0763 113.11 25.3653 112.781 25.626C112.464 25.8753 112.067 26 111.591 26H107.103L116.691 1.231H122.573L132.161 26ZM157.515 19.591C157.651 19.591 157.787 19.6193 157.923 19.676C158.059 19.7213 158.189 19.8063 158.314 19.931L160.592 22.328C159.594 23.6313 158.342 24.6173 156.835 25.286C155.339 25.9433 153.565 26.272 151.514 26.272C149.632 26.272 147.944 25.9547 146.448 25.32C144.963 24.674 143.699 23.79 142.657 22.668C141.625 21.5347 140.832 20.1973 140.277 18.656C139.721 17.1033 139.444 15.4203 139.444 13.607C139.444 11.7597 139.744 10.0653 140.345 8.524C140.945 6.97133 141.79 5.634 142.878 4.512C143.966 3.39 145.269 2.51733 146.788 1.894C148.306 1.27067 149.978 0.958999 151.803 0.958999C152.732 0.958999 153.605 1.044 154.421 1.214C155.248 1.37266 156.019 1.59933 156.733 1.894C157.447 2.17733 158.104 2.523 158.705 2.931C159.305 3.339 159.838 3.781 160.303 4.257L158.365 6.858C158.24 7.01667 158.093 7.164 157.923 7.3C157.753 7.42467 157.515 7.487 157.209 7.487C157.005 7.487 156.812 7.44167 156.631 7.351C156.449 7.26033 156.257 7.15267 156.053 7.028C155.849 6.892 155.622 6.75033 155.373 6.603C155.135 6.44433 154.846 6.30267 154.506 6.178C154.177 6.042 153.786 5.92867 153.333 5.838C152.891 5.74733 152.369 5.702 151.769 5.702C150.817 5.702 149.944 5.87767 149.151 6.229C148.369 6.58033 147.689 7.096 147.111 7.776C146.544 8.44467 146.102 9.272 145.785 10.258C145.479 11.2327 145.326 12.349 145.326 13.607C145.326 14.8763 145.496 16.004 145.836 16.99C146.187 17.976 146.657 18.809 147.247 19.489C147.847 20.1577 148.544 20.6677 149.338 21.019C150.131 21.3703 150.981 21.546 151.888 21.546C152.409 21.546 152.885 21.5233 153.316 21.478C153.746 21.4213 154.149 21.3363 154.523 21.223C154.897 21.0983 155.248 20.9397 155.577 20.747C155.905 20.543 156.24 20.288 156.58 19.982C156.716 19.8687 156.863 19.778 157.022 19.71C157.18 19.6307 157.345 19.591 157.515 19.591ZM186.846 13.607C186.846 15.3977 186.534 17.0637 185.911 18.605C185.299 20.1463 184.432 21.4893 183.31 22.634C182.188 23.7673 180.833 24.657 179.247 25.303C177.671 25.949 175.92 26.272 173.994 26.272C172.067 26.272 170.31 25.949 168.724 25.303C167.137 24.657 165.777 23.7673 164.644 22.634C163.522 21.4893 162.649 20.1463 162.026 18.605C161.414 17.0637 161.108 15.3977 161.108 13.607C161.108 11.8163 161.414 10.1503 162.026 8.609C162.649 7.06767 163.522 5.73033 164.644 4.597C165.777 3.46367 167.137 2.574 168.724 1.928C170.31 1.282 172.067 0.958999 173.994 0.958999C175.92 0.958999 177.671 1.28767 179.247 1.945C180.833 2.591 182.188 3.48067 183.31 4.614C184.432 5.74733 185.299 7.08466 185.911 8.626C186.534 10.1673 186.846 11.8277 186.846 13.607ZM180.964 13.607C180.964 12.383 180.805 11.2837 180.488 10.309C180.17 9.323 179.711 8.49 179.111 7.81C178.521 7.13 177.796 6.60867 176.935 6.246C176.073 5.88333 175.093 5.702 173.994 5.702C172.883 5.702 171.891 5.88333 171.019 6.246C170.157 6.60867 169.426 7.13 168.826 7.81C168.236 8.49 167.783 9.323 167.466 10.309C167.148 11.2837 166.99 12.383 166.99 13.607C166.99 14.8423 167.148 15.953 167.466 16.939C167.783 17.9137 168.236 18.741 168.826 19.421C169.426 20.101 170.157 20.6223 171.019 20.985C171.891 21.3363 172.883 21.512 173.994 21.512C175.093 21.512 176.073 21.3363 176.935 20.985C177.796 20.6223 178.521 20.101 179.111 19.421C179.711 18.741 180.17 17.9137 180.488 16.939C180.805 15.953 180.964 14.8423 180.964 13.607ZM211.851 1.231V26H208.859C208.417 26 208.043 25.932 207.737 25.796C207.442 25.6487 207.148 25.3993 206.853 25.048L195.174 10.275C195.219 10.717 195.248 11.1477 195.259 11.567C195.282 11.975 195.293 12.3603 195.293 12.723V26H190.227V1.231H193.253C193.502 1.231 193.712 1.24233 193.882 1.265C194.052 1.28767 194.205 1.333 194.341 1.401C194.477 1.45767 194.607 1.54267 194.732 1.656C194.857 1.76933 194.998 1.92233 195.157 2.115L206.938 16.99C206.881 16.514 206.842 16.055 206.819 15.613C206.796 15.1597 206.785 14.7347 206.785 14.338V1.231H211.851ZM238.281 1.231V26H235.289C234.847 26 234.473 25.932 234.167 25.796C233.872 25.6487 233.577 25.3993 233.283 25.048L221.604 10.275C221.649 10.717 221.677 11.1477 221.689 11.567C221.711 11.975 221.723 12.3603 221.723 12.723V26H216.657V1.231H219.683C219.932 1.231 220.142 1.24233 220.312 1.265C220.482 1.28767 220.635 1.333 220.771 1.401C220.907 1.45767 221.037 1.54267 221.162 1.656C221.286 1.76933 221.428 1.92233 221.587 2.115L233.368 16.99C233.311 16.514 233.271 16.055 233.249 15.613C233.226 15.1597 233.215 14.7347 233.215 14.338V1.231H238.281ZM248.866 5.651V11.431H256.652V15.681H248.866V21.58H259.032V26H243.086V1.231H259.032V5.651H248.866ZM278.773 19.591C278.909 19.591 279.045 19.6193 279.181 19.676C279.317 19.7213 279.447 19.8063 279.572 19.931L281.85 22.328C280.852 23.6313 279.6 24.6173 278.093 25.286C276.597 25.9433 274.823 26.272 272.772 26.272C270.89 26.272 269.202 25.9547 267.706 25.32C266.221 24.674 264.957 23.79 263.915 22.668C262.883 21.5347 262.09 20.1973 261.535 18.656C260.979 17.1033 260.702 15.4203 260.702 13.607C260.702 11.7597 261.002 10.0653 261.603 8.524C262.203 6.97133 263.048 5.634 264.136 4.512C265.224 3.39 266.527 2.51733 268.046 1.894C269.564 1.27067 271.236 0.958999 273.061 0.958999C273.99 0.958999 274.863 1.044 275.679 1.214C276.506 1.37266 277.277 1.59933 277.991 1.894C278.705 2.17733 279.362 2.523 279.963 2.931C280.563 3.339 281.096 3.781 281.561 4.257L279.623 6.858C279.498 7.01667 279.351 7.164 279.181 7.3C279.011 7.42467 278.773 7.487 278.467 7.487C278.263 7.487 278.07 7.44167 277.889 7.351C277.707 7.26033 277.515 7.15267 277.311 7.028C277.107 6.892 276.88 6.75033 276.631 6.603C276.393 6.44433 276.104 6.30267 275.764 6.178C275.435 6.042 275.044 5.92867 274.591 5.838C274.149 5.74733 273.627 5.702 273.027 5.702C272.075 5.702 271.202 5.87767 270.409 6.229C269.627 6.58033 268.947 7.096 268.369 7.776C267.802 8.44467 267.36 9.272 267.043 10.258C266.737 11.2327 266.584 12.349 266.584 13.607C266.584 14.8763 266.754 16.004 267.094 16.99C267.445 17.976 267.915 18.809 268.505 19.489C269.105 20.1577 269.802 20.6677 270.596 21.019C271.389 21.3703 272.239 21.546 273.146 21.546C273.667 21.546 274.143 21.5233 274.574 21.478C275.004 21.4213 275.407 21.3363 275.781 21.223C276.155 21.0983 276.506 20.9397 276.835 20.747C277.163 20.543 277.498 20.288 277.838 19.982C277.974 19.8687 278.121 19.778 278.28 19.71C278.438 19.6307 278.603 19.591 278.773 19.591ZM302.157 5.787H295.187V26H289.441V5.787H282.471V1.231H302.157V5.787Z" fill="#005BFF"/>
</svg>
