<svg width="286" height="116" viewBox="0 0 286 116" fill="none" xmlns="http://www.w3.org/2000/svg">
<path fill-rule="evenodd" clip-rule="evenodd" d="M215.509 88.9159L162.118 88.9163C158.298 88.9201 157.065 88.1266 155.276 85.5946C153.534 83.1283 152.295 77.3915 152.119 74.6004C151.979 72.376 152.223 70.2292 151.853 68.1548C151.022 63.4913 149.018 58.9667 145.584 55.2379C139.716 48.8669 127.625 44.1588 118.471 44.1763C94.0084 43.927 69.0222 43.1229 44.6354 43.2008C42.3002 43.2081 40.3251 42.8128 38.7165 41.3762C36.131 39.0673 36.1799 35.4189 36.9902 32.1754C37.7041 29.317 39.1642 26.6155 41.8607 25.0708C45.4104 23.0377 84.8262 24.1655 91.7443 24.1655C98.1938 24.1655 104.736 23.2414 108.776 27.9756C110.342 29.8111 111.485 32.3018 111.549 34.7403C120.479 34.7403 135.467 35.0115 144.016 34.2287C146.763 33.977 146.106 34.5182 146.595 32.3436C147.701 27.4316 147.843 22.7578 146.498 17.8592C145.927 15.7812 144.812 13.8382 143.624 12.1563C142.275 10.2474 141.065 9.21518 139.286 7.69228C135.471 4.42649 129.139 2.06928 123.696 0.709656C122.201 0.336252 73.2137 0.575303 71.1706 0.575303C62.9639 0.575303 34.8688 0.0714675 28.7315 0.946488C23.6258 1.67423 19.1089 3.27819 14.8202 5.44488C12.3934 6.67116 10.2483 8.29623 8.24674 9.96982L5.02614 13.2642C-2.6084 23.0339 0.159621 38.4461 2.32051 49.5574C5.54172 61.7257 15.5472 68.6511 30.2182 68.5775C39.312 68.8264 101.53 69.576 107.449 71.7235C115.287 74.5667 112.561 78.8962 113.259 86.6445C113.688 91.4184 114.962 96.3263 116.995 99.7639C119.802 104.51 123.801 108.844 129.561 111.257L134.593 113.181C142.33 115.633 147.595 115.272 155.965 115.272C187.865 115.272 219.764 115.272 251.663 115.272C266.271 115.272 284.456 103.456 285.179 90.2201C285.266 88.6694 285.177 86.9108 285.177 85.3366C285.177 78.8289 285.177 72.3214 285.177 65.8138H249.029C249.789 67.1549 249.187 72.5509 248.663 74.7787C248.154 76.9393 246.739 80.1301 245.375 81.7586C241.866 85.9523 237.153 88.1826 230.906 88.8753C229.495 89.0316 217.963 88.9159 215.509 88.9159Z" fill="#005BFF"/>
<path fill-rule="evenodd" clip-rule="evenodd" d="M138.853 0.25014C139.244 0.744606 139.846 0.959311 140.447 1.34157C142.591 2.70545 142.622 2.83825 144.415 4.16654L146.545 6.10558C146.994 6.59714 147.442 7.06727 147.89 7.5711C150.561 10.576 152.313 14.1705 153.226 18.0233C153.555 19.4088 154.644 25.8561 153.85 27.2566C155.488 27.2566 156.369 27.0829 157.886 27.092L169.208 26.7007C169.454 26.6818 169.72 26.6058 170.194 26.6058H227.685C231.629 26.6058 238.84 28.8341 242.046 31.0488C244.132 32.4912 245.232 33.5018 246.723 35.389C247.869 36.8399 249.064 39.2802 249.605 41.248H284.792C284.792 40.1116 284.984 39.6604 284.984 38.4821C284.984 32.9621 285.519 25.4248 283.666 20.7261C283.426 20.1201 283.227 19.6607 282.926 19.0748C282.755 18.7429 282.634 18.5827 282.489 18.306L281.556 16.6537C280.003 14.1912 278.462 12.4497 276.285 10.376C271.931 6.23124 267.178 3.84693 260.833 1.97498C258.554 1.30241 254.233 0.376306 251.523 0.254562C238.812 -0.315504 220.044 0.249957 206.727 0.249957L138.853 0.25014Z" fill="#FF3D00"/>
<path fill-rule="evenodd" clip-rule="evenodd" d="M0.604787 80.1308C0.604787 86.5057 0.120011 95.5799 2.78299 100.414C7.26113 108.543 15.0339 112.835 25.0708 114.582C29.4696 115.347 38.8888 114.947 44.2523 114.947C70.2736 114.947 96.2952 114.947 122.317 114.947C122.056 114.337 121.882 114.527 121.03 113.921C120.758 113.727 120.688 113.642 120.421 113.46C114.249 109.244 110.119 103.217 107.728 96.8679C107.404 96.0086 106.743 94.2923 106.743 93.3089H51.7512C49.68 93.3089 46.2514 93.1976 44.7686 92.7096C41.8599 91.7525 39.1112 87.466 38.0749 85.0326C37.3411 83.3099 37.0906 81.5654 36.5611 79.6428C25.5974 79.6428 13.2494 79.7895 2.32899 79.6371C1.47293 79.6253 0.604787 79.4448 0.604787 80.1308Z" fill="#FF3D00"/>
</svg>
