<svg width="28" height="35" viewBox="0 0 28 35" fill="none" xmlns="http://www.w3.org/2000/svg">
<path d="M27.8302 11.5255C27.7473 11.3356 27.6311 11.1619 27.4873 11.0128L16.9872 0.51275C16.8381 0.368869 16.6644 0.25272 16.4745 0.16975C16.422 0.14525 16.366 0.13125 16.31 0.112C16.1636 0.0621708 16.0111 0.0321548 15.8567 0.02275C15.82 0.01925 15.7867 0 15.75 0H3.5C1.56975 0 0 1.56975 0 3.5V31.5C0 33.4302 1.56975 35 3.5 35H24.5C26.4303 35 28 33.4302 28 31.5V12.25C28 12.2133 27.9807 12.18 27.9772 12.1415C27.9687 11.987 27.9387 11.8345 27.888 11.6882C27.8705 11.6322 27.8547 11.578 27.8302 11.5255ZM24.5 11.0128H16.9872V4.5L24.5 11.0128ZM2.5 32.5V2.5H15V12.2058C15 13 15 12.5 15 13C15.5 13 15.5359 13 16 13H25.5V32.5H2.5Z" fill="black"/>
<path d="M7 18H21V20.5H7V18ZM7 25H13.5H21V27.5H7V25ZM7 10H10.5V13H7V10Z" fill="black"/>
</svg>
